<svg xmlns="http://www.w3.org/2000/svg" width="1000" height="1000" viewBox="0 0 264.58333 264.58332">
  <path d="M85.6096 8.3838342c-2.831692-.7587496-5.722192.9100813-6.480942 3.7417738L20.236542 231.91398c-.75875 2.83169.910081 5.72219 3.741773 6.48094l66.447647 17.80459c2.831692.75875 5.722192-.91008 6.480941-3.74177l29.446057-109.89419a66.145835 66.145835 0 0 0 34.91122 23.05028 66.145835 66.145835 0 0 0 81.01177-46.77217 66.145835 66.145835 0 0 0-46.77217-81.011768 66.145835 66.145835 0 0 0-41.75914 2.506513l2.05438-7.667036c.75875-2.831692-.91008-5.722192-3.74177-6.480942zm98.23775 72.8885838a21.166666 21.166666 0 0 1 .015.004 21.166666 21.166666 0 0 1 14.96709 25.923772 21.166666 21.166666 0 0 1-25.92376 14.96709 21.166666 21.166666 0 0 1-14.9671-25.923768 21.166666 21.166666 0 0 1 25.9088-14.971106z" fill="#000"/>
  <rect width="42.333332" height="79.375" x="157.21735" y="177.00752" ry="5.2916665" fill="#fff"/>
</svg>
